<?xml version="1.0" standalone="no"?>
<!DOCTYPE svg PUBLIC "-//W3C//DTD SVG 20010904//EN"
 "http://www.w3.org/TR/2001/REC-SVG-20010904/DTD/svg10.dtd">
<svg version="1.0" xmlns="http://www.w3.org/2000/svg"
 width="480.000000pt" height="320.000000pt" viewBox="0 0 480.000000 320.000000"
 preserveAspectRatio="xMidYMid meet">

<g transform="translate(0.000000,320.000000) scale(0.100000,-0.100000)"
fill="#000000" stroke="none">
<path d="M1807 3179 c-67 -10 -230 -78 -281 -118 -19 -14 -72 -52 -118 -83
-120 -80 -191 -169 -222 -277 -13 -45 -28 -87 -33 -94 -6 -6 -13 -25 -17 -41
-10 -41 -37 -72 -60 -68 -34 7 -38 -11 -26 -119 10 -94 43 -249 58 -274 4 -5
5 -42 3 -80 -2 -60 3 -85 35 -175 20 -58 45 -130 56 -160 34 -97 86 -195 130
-245 17 -20 16 -23 -7 -73 -41 -88 -82 -131 -163 -168 -39 -19 -76 -34 -80
-34 -4 0 -49 -25 -100 -55 -51 -30 -110 -58 -132 -61 -26 -4 -40 -12 -40 -22
0 -12 10 -14 55 -8 41 5 77 19 145 60 50 30 127 69 171 87 81 34 122 70 162
144 l16 30 1 -55 c1 -82 43 -194 147 -385 99 -185 162 -331 289 -675 55 -150
88 -226 98 -228 9 -2 16 1 16 6 0 10 -55 166 -104 295 -25 68 -18 86 9 21 13
-31 45 -48 45 -24 0 6 7 10 15 10 15 0 45 49 45 75 0 28 -29 16 -46 -20 -15
-33 -34 -39 -34 -11 0 7 -9 25 -20 39 -11 14 -20 32 -20 40 0 8 -6 20 -13 26
-8 6 -20 29 -27 52 -10 30 -18 39 -31 36 -11 -3 -19 2 -22 14 -3 11 -1 19 4
19 5 0 9 7 9 15 0 8 -7 15 -16 15 -14 0 -64 95 -64 122 0 6 -47 99 -105 206
-131 243 -169 360 -135 412 7 12 10 8 10 -14 0 -16 10 -55 21 -87 18 -49 37
-73 123 -156 55 -54 128 -118 161 -143 33 -25 94 -74 135 -109 41 -36 105 -87
143 -114 37 -27 67 -53 67 -56 0 -20 -47 -66 -63 -63 -14 3 -17 -3 -16 -30 1
-21 -9 -53 -29 -90 -36 -63 -37 -72 -18 -110 8 -15 17 -66 21 -115 9 -135 15
-163 31 -163 13 0 14 13 9 73 l-6 72 25 -45 c14 -25 25 -55 26 -67 0 -35 30
-29 30 6 0 39 -45 134 -67 143 -16 6 -16 7 2 7 12 1 43 -21 71 -48 l51 -48 -5
-97 c-4 -84 -3 -96 12 -96 11 0 16 9 16 32 0 18 5 69 12 114 9 61 9 92 1 118
-10 32 -9 38 10 51 21 15 22 14 26 -7 4 -28 18 -38 54 -38 21 0 27 5 27 23 0
12 5 29 10 37 7 11 10 6 10 -22 0 -20 4 -40 10 -43 5 -3 17 -32 26 -63 9 -31
24 -68 33 -82 31 -49 94 -120 108 -120 24 0 13 33 -27 81 -51 60 -76 105 -85
149 -4 19 -14 46 -22 58 -12 20 -13 29 -2 55 17 43 28 57 43 51 7 -3 10 -18 8
-39 -3 -26 0 -35 11 -35 8 0 17 9 20 20 7 28 23 25 49 -10 30 -41 57 -40 56 3
0 31 -13 60 -40 88 -33 35 -118 171 -118 188 0 11 13 27 29 37 16 9 35 31 42
48 8 17 27 37 42 46 26 14 29 13 41 -2 7 -10 25 -57 40 -105 15 -49 35 -103
44 -120 17 -33 37 -43 44 -22 4 12 58 -117 58 -139 0 -6 -5 -12 -11 -12 -7 0
-10 -12 -7 -30 3 -22 0 -31 -13 -35 -16 -5 -18 -17 -17 -83 1 -85 13 -114 55
-134 16 -7 29 -23 31 -34 3 -19 10 -22 63 -22 49 0 59 3 59 17 0 28 -38 61
-70 61 -28 0 -28 1 -19 32 14 52 11 86 -20 193 -32 107 -111 336 -138 398 -15
35 -43 51 -43 25 0 -27 -20 18 -29 67 -25 131 -25 128 25 187 25 29 68 85 95
125 27 40 58 77 68 82 12 7 38 7 77 0 33 -5 104 -16 159 -24 55 -8 133 -19
173 -25 74 -11 333 -74 457 -111 118 -35 154 -58 205 -127 52 -71 258 -477
272 -535 10 -47 36 -87 54 -87 20 0 17 24 -6 62 -11 18 -20 43 -20 55 0 30
-210 451 -261 523 -64 92 -77 98 -314 164 -190 52 -319 79 -475 101 -63 9
-137 20 -165 25 -27 6 -76 13 -109 16 -56 7 -58 8 -37 23 26 20 61 84 61 111
0 34 -25 22 -48 -23 -12 -24 -34 -54 -48 -67 l-28 -25 21 30 c42 62 75 137 69
160 -4 15 -1 25 9 29 8 3 15 13 15 22 0 12 -6 15 -22 11 -44 -10 -63 -14 -50
-10 6 3 12 8 12 13 0 17 -82 91 -96 86 -7 -3 -16 -1 -19 4 -4 6 1 10 9 10 21
0 21 53 1 70 -8 7 -15 21 -15 32 0 10 -7 21 -15 24 -37 15 -7 19 102 14 l118
-5 3 -42 c2 -28 8 -43 16 -43 15 0 27 118 16 160 -4 17 -1 29 11 40 9 8 20 34
23 58 6 38 4 43 -11 40 -11 -2 -19 -14 -21 -32 l-4 -29 -28 34 c-16 18 -25 36
-20 39 5 3 10 34 12 69 2 40 8 66 16 69 6 2 12 -3 12 -12 0 -11 9 -16 30 -16
25 0 30 4 30 25 0 20 -6 27 -30 32 -37 7 -38 21 -5 69 21 31 25 49 26 113 1
42 3 68 6 59 6 -25 33 -23 33 2 0 32 -42 112 -61 117 -10 3 -27 20 -38 38
l-19 33 26 -14 c37 -19 52 -17 52 6 0 11 -6 20 -14 20 -8 0 -32 21 -52 48 -21
26 -59 70 -85 97 -26 28 -49 61 -51 75 -2 19 -10 26 -32 30 -30 5 -33 9 -60
71 -19 44 -93 129 -112 129 -27 0 -80 44 -76 62 4 21 -49 51 -55 31 -3 -8 -18
-6 -51 9 -26 11 -76 24 -112 28 -36 5 -114 15 -174 24 -119 17 -133 18 -219 5z
m103 -34 c0 -17 27 -20 32 -4 3 9 26 8 88 -1 47 -7 110 -14 141 -17 49 -5 56
-8 52 -24 -4 -14 0 -19 15 -19 11 0 22 5 24 12 3 8 15 5 39 -10 19 -12 48 -29
66 -38 18 -10 33 -27 35 -38 2 -15 10 -21 27 -21 15 0 27 -8 32 -23 10 -27 10
-27 -38 -3 -98 50 -192 91 -208 91 -12 0 -16 -6 -12 -20 5 -18 0 -20 -46 -20
-90 -1 -228 -36 -234 -60 -3 -11 -18 -20 -41 -24 -123 -21 -325 -167 -261
-188 7 -2 -12 -23 -42 -47 -83 -66 -92 -86 -93 -202 -1 -72 3 -102 12 -108 9
-5 11 -17 6 -35 -6 -24 -4 -27 12 -24 26 4 30 50 9 95 -18 37 -14 122 7 168
11 25 106 106 206 175 34 24 62 50 62 57 0 24 -38 14 -87 -23 l-48 -37 33 36
c53 55 175 109 225 100 38 -7 77 5 77 23 0 12 -7 15 -26 11 -45 -8 -11 10 51
28 33 9 103 21 155 25 l95 9 92 -45 c99 -48 109 -50 116 -31 2 7 18 -2 41 -25
21 -21 44 -38 52 -38 8 0 14 -8 14 -18 0 -10 6 -24 13 -31 6 -8 -16 5 -50 28
-34 22 -72 40 -85 39 -13 0 -59 12 -103 27 -68 24 -96 29 -190 29 -96 1 -114
-2 -140 -20 -16 -12 -50 -24 -75 -28 -75 -10 -130 -29 -130 -44 0 -10 9 -13
33 -8 142 24 176 33 190 48 40 40 188 31 329 -21 32 -12 65 -21 74 -21 26 0
107 -55 132 -90 28 -38 56 -41 50 -5 -3 14 -2 25 3 25 14 0 84 -81 81 -94 -4
-20 33 -93 78 -156 22 -30 40 -66 40 -81 0 -14 5 -30 12 -37 7 -7 13 -40 14
-75 2 -51 -1 -67 -20 -92 -12 -16 -25 -38 -29 -47 -3 -10 -12 -15 -19 -13 -9
4 -13 29 -14 80 -2 78 -20 125 -49 125 -19 0 -19 -28 -1 -49 7 -9 16 -35 19
-58 6 -50 -10 -71 -42 -54 -32 18 -56 13 -84 -18 -38 -43 -78 -49 -122 -16
-26 20 -35 35 -35 56 0 19 -5 29 -15 29 -8 0 -15 -8 -15 -17 0 -10 -3 -28 -6
-40 -5 -17 1 -26 26 -41 l32 -20 -41 -4 -42 -4 7 43 c5 35 3 43 -9 43 -23 0
-40 -61 -27 -94 5 -15 10 -31 10 -35 0 -15 -49 -19 -67 -6 -15 11 -15 15 5 43
29 40 30 76 2 69 -11 -3 -20 -1 -20 4 0 21 -31 6 -52 -25 l-23 -33 -50 13
c-58 16 -253 17 -305 1 -19 -5 -47 -18 -62 -28 -33 -24 -65 -24 -208 2 -63 11
-132 21 -153 22 -21 2 -41 7 -45 12 -9 13 -49 35 -62 35 -5 0 -10 -9 -10 -19
0 -26 66 -57 150 -69 l65 -10 -65 3 c-57 3 -271 22 -277 24 -2 1 -3 8 -3 16 0
8 -8 15 -19 15 -10 0 -24 -7 -31 -15 -7 -8 -16 -15 -20 -15 -11 0 -48 166 -55
244 -5 63 -5 67 10 52 9 -9 23 -16 31 -16 25 0 54 20 54 36 0 13 -7 15 -36 9
l-36 -6 26 28 c14 15 26 31 26 35 0 5 10 8 23 8 12 1 33 7 47 15 14 8 35 14
48 15 22 0 62 32 62 50 0 6 -18 10 -40 10 -25 0 -40 -5 -40 -13 0 -6 -20 -20
-45 -29 -25 -9 -44 -13 -43 -9 10 19 27 58 32 74 3 9 14 17 25 17 21 0 62 49
99 116 25 48 28 64 9 64 -12 0 -57 -51 -57 -65 0 -10 -52 -76 -57 -71 -10 9
29 76 79 135 103 123 397 301 526 320 83 12 82 12 82 -4z m849 -999 c6 -4 11
-18 11 -32 0 -13 5 -24 10 -24 6 0 10 -16 10 -35 0 -19 -1 -35 -3 -35 -2 0
-30 14 -63 31 -45 23 -67 29 -92 24 -50 -9 -31 10 23 24 30 8 45 17 45 27 0
17 -5 17 -86 -1 -27 -6 -27 -6 6 12 34 18 116 23 139 9z m-771 -59 c12 -3 10
-5 -5 -6 -13 0 -23 -7 -23 -15 0 -8 -16 -16 -41 -20 -73 -12 -81 15 -14 45 27
12 45 27 46 37 0 10 4 7 10 -10 6 -15 18 -29 27 -31z m178 38 c64 -17 83 -29
63 -41 -7 -4 -14 -3 -17 4 -2 7 -23 12 -47 12 -24 0 -47 5 -51 11 -3 6 -17 8
-29 5 -29 -7 -86 4 -79 15 8 14 97 11 160 -6z m407 -29 c-5 -23 -27 -36 -65
-36 -23 0 -11 39 16 50 39 16 54 12 49 -14z m-121 -34 c-4 -43 -2 -49 19 -59
l24 -12 -27 0 c-16 -1 -28 -6 -28 -11 0 -6 -11 -3 -23 7 -25 19 -25 51 0 66 7
4 13 16 13 27 0 10 6 21 13 23 6 3 12 6 13 6 1 1 -1 -21 -4 -47z m-1194 24
c15 -8 40 -30 57 -50 18 -22 39 -36 52 -36 31 0 29 15 -8 51 -36 36 -32 46 12
30 18 -6 60 -11 95 -11 74 0 164 -17 164 -32 0 -5 8 -8 18 -6 9 2 22 0 27 -4
6 -5 21 -18 35 -29 l25 -21 -45 4 c-35 2 -45 0 -48 -14 -3 -13 6 -17 40 -20
38 -3 43 -6 46 -30 2 -20 -4 -32 -27 -49 -35 -26 -40 -49 -12 -49 29 0 69 38
73 68 3 26 5 24 26 -20 29 -57 55 -82 81 -75 11 3 37 -1 58 -9 71 -25 245 -13
264 18 6 9 9 9 9 1 0 -6 -7 -19 -16 -27 -13 -14 -42 -16 -183 -15 -167 2 -191
-1 -191 -24 0 -9 34 -11 130 -8 131 3 160 -3 160 -33 0 -12 -92 -108 -160
-168 -17 -16 -42 -28 -57 -28 -20 0 -24 -4 -20 -20 6 -25 -1 -25 -33 0 -32 25
-50 25 -50 0 0 -12 15 -28 40 -42 22 -13 40 -29 40 -37 0 -8 7 -11 20 -8 16 4
24 -2 35 -29 15 -36 45 -47 45 -16 0 22 18 24 185 20 66 -2 172 -3 237 -3 92
0 114 -3 106 -12 -6 -7 -24 -13 -40 -13 -38 0 -98 -28 -98 -46 0 -16 41 -19
55 -5 6 5 32 13 58 16 l48 7 -7 -28 c-4 -16 -13 -38 -20 -49 -17 -23 -18 -55
-4 -55 18 0 59 54 60 77 0 12 11 39 25 59 14 20 25 43 25 50 0 19 16 18 24 -1
10 -28 32 -15 57 35 13 27 27 50 30 50 3 0 13 -6 24 -14 20 -14 24 -4 -73
-176 -18 -30 -32 -63 -32 -72 0 -20 -22 -36 -28 -20 -8 24 -31 11 -61 -34 -17
-25 -31 -50 -31 -57 -1 -20 -26 -47 -44 -47 -9 0 -27 -7 -40 -15 -27 -18 -86
-10 -86 11 0 19 -50 18 -77 -1 -11 -8 -39 -17 -62 -21 -37 -6 -41 -4 -41 14 0
13 -11 26 -32 36 -37 19 -58 20 -58 4 0 -7 -13 4 -30 24 -27 32 -35 36 -75 36
-37 -1 -45 -5 -45 -20 0 -14 8 -18 32 -18 25 0 41 -10 77 -49 41 -43 52 -49
100 -55 30 -4 63 -12 73 -17 13 -7 36 -7 73 1 65 14 165 18 165 8 0 -21 43 -4
67 27 15 19 34 35 41 35 7 0 21 15 32 33 30 49 44 67 52 67 17 0 6 -20 -50
-86 -32 -38 -61 -77 -65 -87 -3 -9 -14 -17 -24 -18 -10 0 -40 -27 -68 -60 -84
-101 -155 -157 -215 -170 -28 -6 -66 -8 -82 -5 -36 7 -122 67 -233 162 -44 38
-107 89 -140 114 -114 85 -256 231 -281 288 -27 59 -33 105 -9 60 8 -15 24
-29 35 -33 11 -3 25 -15 30 -25 6 -10 35 -47 65 -82 30 -34 55 -69 55 -75 0
-7 8 -13 18 -13 9 0 27 -3 40 -6 38 -11 25 12 -58 98 -44 45 -80 86 -80 90 0
5 -9 17 -20 28 -16 16 -17 20 -5 20 19 0 20 26 1 37 -7 4 -20 22 -29 39 -9 17
-23 37 -32 44 -14 11 -16 24 -10 68 9 69 -12 107 -53 97 -22 -5 -25 -4 -14 6
17 18 15 54 -3 69 -8 7 -12 16 -9 21 9 16 -7 49 -24 50 -14 0 -14 2 -2 6 8 3
18 11 22 17 4 6 8 -1 8 -16 0 -34 27 -38 33 -5 2 12 5 -6 6 -40 1 -49 4 -63
16 -63 11 0 15 13 15 54 0 81 -11 146 -25 146 -7 0 -18 14 -25 30 -7 17 -19
30 -26 30 -8 0 -14 10 -14 24 0 27 -14 41 -51 49 -14 4 -38 19 -52 33 -21 21
-33 25 -57 21 -37 -8 -41 14 -8 37 27 19 23 19 56 2z m355 7 c-7 -2 -21 -2
-30 0 -10 3 -4 5 12 5 17 0 24 -2 18 -5z m189 -27 c4 -5 4 -14 2 -18 -9 -14 7
-48 22 -48 8 0 14 5 14 11 0 5 4 7 10 4 5 -3 67 -2 137 4 73 6 143 6 163 1 43
-10 38 -11 -127 -16 -154 -5 -204 -18 -214 -54 -5 -20 -8 -15 -14 28 -4 29
-14 59 -21 67 -8 7 -40 19 -72 25 -86 17 -85 19 8 13 47 -3 88 -11 92 -17z
m316 8 c28 -4 52 -10 52 -13 0 -3 -31 -6 -70 -6 -49 0 -70 4 -70 13 0 14 13
14 88 6z m173 -17 c18 -14 31 -65 17 -73 -5 -3 -15 -20 -22 -37 -12 -27 -15
-28 -15 -10 -1 12 4 25 9 28 15 9 12 45 -4 45 -20 0 -29 16 -21 40 7 23 14 24
36 7z m-1115 -47 c18 -10 27 -11 35 -3 9 9 18 4 36 -18 14 -16 35 -29 48 -29
29 0 51 -25 37 -43 -6 -7 -12 -41 -14 -75 l-3 -63 -23 26 c-12 15 -28 25 -35
22 -16 -5 -47 41 -47 71 0 33 -30 28 -31 -5 0 -23 -4 -19 -19 22 -10 28 -18
73 -18 100 0 28 3 41 5 29 2 -12 15 -27 29 -34z m1505 20 c36 -20 19 -25 -81
-25 -62 0 -99 4 -97 10 8 22 143 33 178 15z m64 -40 c3 -5 1 -10 -4 -10 -6 0
-11 5 -11 10 0 6 2 10 4 10 3 0 8 -4 11 -10z m-609 -20 c13 0 24 -5 24 -11 0
-16 -34 -57 -77 -90 -33 -27 -43 -30 -80 -24 -29 4 -45 2 -55 -8 -10 -11 -18
-12 -38 -3 -57 26 -88 89 -55 116 17 14 177 31 229 24 16 -2 39 -4 52 -4z
m502 3 c-39 -6 -37 -33 2 -33 20 0 30 5 30 15 0 8 2 15 4 15 14 0 95 -40 101
-50 10 -16 -14 -58 -37 -66 -10 -3 -18 -14 -18 -25 0 -14 -8 -19 -27 -21 -66
-4 -125 3 -152 17 -34 17 -71 73 -71 107 0 31 41 45 130 45 36 0 53 -2 38 -4z
m-250 -15 c7 -7 12 -23 12 -37 1 -37 33 -104 61 -127 20 -16 24 -27 22 -67 -1
-26 -7 -56 -12 -66 -13 -23 -51 -35 -51 -15 0 8 -7 14 -15 14 -8 0 -15 -7 -15
-17 0 -14 -2 -14 -20 2 -26 23 -18 33 20 27 46 -7 80 15 80 50 0 15 -3 28 -7
28 -5 0 -19 3 -31 7 -21 5 -23 3 -20 -23 3 -27 1 -28 -41 -29 -54 0 -77 26
-66 76 6 26 4 30 -12 27 -25 -4 -31 -88 -9 -120 23 -32 21 -34 -31 -29 -74 5
-94 39 -48 79 14 12 25 30 25 40 0 10 12 29 26 43 15 13 35 44 46 69 32 73 59
95 86 68z m-170 -50 c-65 -96 -88 -109 -188 -107 -67 1 -57 5 33 14 57 6 67 9
67 26 0 10 4 19 9 19 4 0 21 19 37 43 34 49 46 59 57 48 5 -5 -2 -24 -15 -43z
m42 -18 c-6 -11 -13 -20 -16 -20 -2 0 0 9 6 20 6 11 13 20 16 20 2 0 0 -9 -6
-20z m560 -39 c-12 -23 -30 -36 -30 -22 0 21 13 41 26 41 11 0 12 -4 4 -19z
m10 -71 c0 -6 -28 -9 -67 -9 -56 1 -62 3 -33 9 53 11 100 11 100 0z m-1600 -4
c0 -3 -4 -8 -10 -11 -5 -3 -10 -1 -10 4 0 6 5 11 10 11 6 0 10 -2 10 -4z m122
-78 c5 -30 -9 -39 -18 -13 -4 8 -11 15 -17 15 -15 0 -57 41 -57 55 0 8 15 5
44 -9 33 -16 45 -28 48 -48z m1191 32 c-4 -14 0 -20 11 -20 9 0 16 -4 16 -10
0 -5 -4 -10 -10 -10 -5 0 -10 -7 -10 -15 0 -9 9 -15 25 -15 23 0 54 -35 42
-47 -3 -2 -11 5 -17 17 -10 18 -18 21 -53 16 -23 -3 -36 -3 -29 0 14 6 16 31
3 36 -13 5 0 68 14 68 8 0 11 -8 8 -20z m-393 -20 c0 -11 -4 -20 -10 -20 -5 0
-10 9 -10 20 0 11 5 20 10 20 6 0 10 -9 10 -20z m-895 -19 c3 -5 1 -12 -5 -16
-5 -3 -10 1 -10 9 0 18 6 21 15 7z m900 -41 c3 -5 -3 -10 -15 -10 -12 0 -18 5
-15 10 3 6 10 10 15 10 5 0 12 -4 15 -10z m-813 -22 c-11 -11 -32 -3 -32 12 0
4 9 6 21 3 13 -4 17 -9 11 -15z m933 -8 c8 -13 -25 -13 -45 0 -12 8 -9 10 12
10 15 0 30 -4 33 -10z m165 -17 c39 3 70 4 70 2 0 -2 -20 -17 -45 -34 -25 -17
-45 -26 -45 -21 0 6 -6 10 -14 10 -8 0 -16 5 -18 11 -5 16 -48 1 -48 -16 0
-14 21 -25 53 -26 21 0 21 -1 -2 -10 -28 -11 -92 8 -71 21 7 4 10 18 8 31 -4
31 12 51 30 37 8 -7 40 -9 82 -5z m134 -41 c-8 -7 -14 -21 -14 -31 0 -17 -24
-46 -66 -80 -12 -11 -46 -15 -121 -15 -87 -1 -106 2 -114 16 -7 13 -27 16
-110 17 -145 1 -145 0 -78 71 57 59 80 68 93 34 6 -17 33 -19 38 -3 2 6 25
-10 51 -35 26 -25 65 -50 85 -57 33 -9 42 -8 78 13 75 42 123 77 134 99 11 20
12 20 25 3 10 -15 10 -20 -1 -32z m-1256 8 c6 0 12 5 14 12 9 25 35 -2 42 -41
3 -23 16 -51 27 -62 24 -24 19 -34 -14 -26 -12 4 -33 23 -45 44 -12 21 -31 54
-43 73 -11 19 -14 27 -6 18 8 -10 19 -18 25 -18z m113 -41 c-9 -25 -10 -24
-25 25 -7 21 6 28 21 13 10 -10 11 -20 4 -38z m1204 -24 c27 -46 26 -65 -3
-65 -10 0 -27 -6 -38 -14 -11 -8 -42 -17 -69 -21 -120 -15 -121 -15 -100 -5
11 5 37 9 58 9 47 1 91 43 107 101 6 22 13 40 15 40 2 0 16 -20 30 -45z m-715
-50 c-7 -8 -17 -15 -22 -15 -6 0 -5 7 2 15 7 8 17 15 22 15 6 0 5 -7 -2 -15z
m170 -20 c47 -3 110 -18 110 -27 0 -7 -237 -1 -249 6 -22 14 20 37 54 30 16
-4 54 -8 85 -9z m289 -41 c8 -7 -74 -3 -114 6 -30 6 -21 7 35 3 41 -3 77 -7
79 -9z m133 -566 c5 -47 5 -48 -22 -48 -31 0 -80 -34 -80 -55 0 -17 -50 -65
-67 -65 -7 0 -13 -4 -13 -9 0 -5 -11 0 -24 12 l-23 21 103 104 c57 57 104 109
105 115 1 24 16 -30 21 -75z m-246 -186 c8 -5 7 -16 -2 -37 -14 -32 -16 -31
-18 15 -1 31 2 35 20 22z m365 -66 c4 -16 5 -26 2 -22 -8 8 -33 78 -32 91 0
12 17 -27 30 -69z m-467 48 c11 -30 7 -64 -9 -64 -9 0 -18 -7 -21 -15 -5 -11
-12 -8 -36 15 -37 38 -31 67 15 73 18 2 35 5 38 5 4 1 10 -5 13 -14z m82 -94
c5 0 8 -18 6 -40 -3 -32 -1 -40 12 -40 9 0 16 8 16 18 0 15 6 17 37 14 l36 -5
-6 37 c-3 20 -4 36 -2 36 8 0 76 -112 71 -117 -3 -4 -23 -7 -43 -7 -32 -1 -40
-6 -53 -33 -14 -31 -16 -31 -36 -15 -11 9 -29 39 -39 66 -10 27 -24 61 -31 74
-15 30 -6 53 11 29 7 -10 16 -17 21 -17z m-196 -30 c5 0 12 -15 15 -32 4 -18
12 -38 17 -45 7 -8 3 -10 -11 -6 -23 6 -28 -15 -12 -45 15 -29 -46 -20 -76 11
-22 22 -25 30 -16 49 l10 23 12 -23 c15 -27 32 -28 49 -2 15 24 6 70 -14 70
-8 0 -14 -4 -14 -10 0 -5 -4 -10 -10 -10 -5 0 1 17 13 38 l22 37 3 -27 c2 -16
7 -28 12 -28z m120 -67 c0 -13 -6 -23 -14 -23 -9 0 -15 15 -18 45 -3 45 -3 45
14 23 10 -13 18 -33 18 -45z m-10 -61 c25 -5 36 -10 25 -11 -12 -1 -26 -6 -31
-11 -7 -7 -20 0 -40 22 -16 18 -22 27 -14 21 8 -6 35 -15 60 -21z m100 -33 c0
-14 -17 -10 -23 5 -4 10 -1 13 9 9 7 -3 14 -9 14 -14z m-159 -56 c13 -16 12
-17 -3 -4 -17 13 -22 21 -14 21 2 0 10 -8 17 -17z m617 -76 c2 -15 -1 -27 -7
-27 -6 0 -11 3 -11 8 0 4 -3 18 -7 31 -4 18 -2 23 8 19 8 -2 15 -17 17 -31z
m37 -56 c-8 -49 -20 -59 -45 -36 -24 21 -17 35 16 35 19 0 24 5 24 27 0 14 3
24 6 20 3 -3 3 -24 -1 -46z"/>
<path d="M1594 2878 c-69 -74 -144 -176 -144 -198 0 -19 39 -10 51 13 13 24
61 85 121 156 66 76 41 101 -28 29z"/>
<path d="M1352 2555 c-30 -25 -63 -45 -73 -45 -10 0 -19 -7 -19 -15 0 -24 64
-19 97 8 62 50 58 52 58 -28 0 -55 -4 -77 -17 -92 -21 -23 -24 -63 -5 -63 6 0
24 20 39 44 27 45 35 110 16 133 -6 8 -4 22 6 42 25 47 21 61 -16 61 -24 0
-48 -13 -86 -45z"/>
<path d="M1620 1374 c0 -15 12 -36 29 -52 16 -15 37 -42 47 -61 11 -19 31 -55
46 -80 15 -25 34 -60 42 -77 8 -17 22 -37 31 -44 9 -7 23 -26 31 -42 8 -15 22
-28 30 -28 23 0 10 46 -27 92 -16 20 -34 47 -40 60 -6 13 -22 44 -37 69 -15
25 -37 64 -50 87 -12 23 -31 46 -41 52 -11 5 -23 19 -26 30 -9 29 -35 25 -35
-6z"/>
<path d="M1102 1093 c-28 -32 -52 -61 -52 -65 0 -5 11 -8 24 -8 27 0 106 85
106 114 0 30 -25 16 -78 -41z"/>
<path d="M1860 253 c0 -23 32 -106 59 -158 17 -32 31 -66 31 -76 0 -11 7 -19
15 -19 9 0 15 9 15 23 0 28 -17 89 -27 96 -10 7 -37 66 -49 106 -8 26 -44 50
-44 28z"/>
<path d="M2232 188 c-17 -17 -15 -58 3 -58 8 0 15 5 15 11 0 5 5 7 11 4 17
-11 70 16 67 34 -4 20 -77 28 -96 9z"/>
<path d="M2170 88 c0 -7 -3 -23 -6 -35 -5 -17 -2 -23 11 -23 9 0 23 -7 31 -15
27 -27 136 -14 156 18 16 25 8 47 -16 47 -14 0 -28 5 -31 10 -3 6 -24 10 -46
10 -42 0 -54 -20 -21 -39 19 -11 18 -12 -20 -15 -22 -1 -26 2 -25 23 1 17 -4
26 -15 29 -10 2 -18 -2 -18 -10z"/>
</g>
</svg>
